<?xml version="1.0" encoding="UTF-8" standalone="no"?>
<!DOCTYPE svg PUBLIC "-//W3C//DTD SVG 1.1//EN" "http://www.w3.org/Graphics/SVG/1.1/DTD/svg11.dtd">
<svg width="100%" height="100%" viewBox="0 0 249 173" version="1.1" xmlns="http://www.w3.org/2000/svg" xmlns:xlink="http://www.w3.org/1999/xlink" xml:space="preserve" xmlns:serif="http://www.serif.com/" style="fill-rule:evenodd;clip-rule:evenodd;stroke-linejoin:round;stroke-miterlimit:1.41421;">
    <g transform="matrix(1,0,0,1,-1612.94,-2053.6)">
        <g transform="matrix(1,0,0,1,-0.124626,-0.421699)">
            <g transform="matrix(0.983507,0,0,0.983507,1767.1,2062.88)">
                <path d="M0,157.481C3.719,158.484 7.623,156.624 9.179,153.103L31.217,103.567C31.744,102.394 32.918,101.628 34.21,101.628L34.21,101.616L95.715,101.616L92.224,84.313L25.717,84.313C24.333,84.313 23.066,85.104 22.446,86.357L15.127,101.273L25.968,-0.37C26.416,-4.589 23.396,-8.467 19.057,-8.968C15.391,-9.377 11.975,-7.003 10.722,-3.535L-20.679,83.733L-46.291,83.733C-49.232,83.733 -51.935,85.394 -53.267,88.032L-65.058,111.415L-49.126,8.216C-48.454,3.877 -51.526,-0.303 -56.142,-0.765C-59.374,-1.094 -62.446,0.778 -63.924,3.667L-104.623,83.442C-105.19,84.537 -106.323,85.21 -107.537,85.183L-153.126,84.314L-156.618,101.616L-103.594,101.998C-99.505,101.616 -97.778,103.343 -94.52,98.015L-72.034,53.94L-88.045,157.574C-88.559,160.884 -87.069,164.287 -84.141,165.882C-82.915,166.555 -81.622,166.858 -80.356,166.858C-77.481,166.858 -74.738,165.249 -73.379,162.559L-41.503,99.347L-15.206,99.347C-11.909,99.347 -8.968,97.277 -7.847,94.177L3.469,62.71L-5.75,149.093C-6.159,152.931 -3.719,156.479 0,157.481" style="fill:white;fill-rule:nonzero;"/>
            </g>
        </g>
    </g>
</svg>
